PathFileType	4	(X/Y/Z)	0_coords_data.trc
DataRate	CameraRate	NumFrames	NumMarkers	Units	OrigDataRate	OrigDataStartFrame	OrigNumFrames
30.0	30.0	6	21	m	30.0	20	48
Frame#	Time	THUMB_TIP	THUMB_IP	THUMB_MCP	THUMB_CMC	INDEX_TIP	INDEX_DIP	INDEX_PIP	INDEX_MCP	MIDDLE_TIP	MIDDLE_DIP	MIDDLE_PIP	MIDDLE_MCP	RING_TIP	RING_DIP	RING_PIP	RING_MCP	PINKY_TIP	PINKY_DIP	PINKY_PIP	PINKY_MCP	WRIST
X1	Y1	Z1	X2	Y2	Z2	X3	Y3	Z3	X4	Y4	Z4	X5	Y5	Z5	X6	Y6	Z6	X7	Y7	Z7	X8	Y8	Z8	X9	Y9	Z9	X10	Y10	Z10	X11	Y11	Z11	X12	Y12	Z12	X13	Y13	Z13	X14	Y14	Z14	X15	Y15	Z15	X16	Y16	Z16	X17	Y17	Z17	X18	Y18	Z18	X19	Y19	Z19	X20	Y20	Z20	X21	Y21	Z21
19	0.6333333333333333	-0.018346599578857422	-0.13197999572753907	0.9928140258789062	-0.009108960151672363	-0.10515299987792968	0.9972039794921875	-0.016649000167846678	-0.08190519714355468	1.0171799926757812	-0.016528799057006837	-0.04361460113525391	1.0274100341796875	0.003748070001602173	-0.10410099792480469	0.8905800170898438	-0.002899440050125122	-0.09549749755859376	0.9124019775390625	-0.009527830123901368	-0.086002197265625	0.9348629760742188	-0.022770500183105467	-0.06977580261230469	0.9690919799804687	0.008699529647827149	-0.0642218017578125	0.8646649780273438	0.0037731199264526357	-0.06029909896850586	0.8908679809570312	-0.004593760013580322	-0.055397998809814455	0.9199949951171875	-0.020562599182128907	-0.046326499938964844	0.9581829833984375	0.010123600006103515	-0.028597000122070313	0.8615540161132812	0.004680449962615967	-0.026782899856567382	0.8874199829101562	-0.003777590036392212	-0.025317100524902342	0.9154739990234375	-0.013871999740600586	-0.02328300094604492	0.9549219970703124	0.015141599655151368	0.016664100646972657	0.888302001953125	0.006341730117797852	0.01301889991760254	0.907822998046875	-0.002659770011901855	0.008762299537658691	0.9268670043945313	-0.01030340003967285	-0.00016934199631214101	0.9567589721679688	-0.04163990020751953	-0.010067999839782715	1.0434599609375
20	0.6666666666666666	-0.01823069953918457	-0.13183599853515626	0.9927570190429688	-0.008948789596557618	-0.10506300354003906	0.9971439819335938	-0.016533599853515626	-0.08172039794921875	1.0171500244140625	-0.01658970069885254	-0.043343101501464844	1.027530029296875	0.003876660108566284	-0.1038740005493164	0.8905659790039062	-0.002720269918441772	-0.0953292007446289	0.9122020263671875	-0.009467140197753906	-0.0857843017578125	0.9348270263671875	-0.02260300064086914	-0.06964600372314453	0.9688720092773437	0.00870341968536377	-0.06400810241699219	0.8646290283203125	0.0037883999347686757	-0.06008879852294922	0.8908980102539062	-0.004720160007476807	-0.05520220184326172	0.9200449829101562	-0.02060810089111328	-0.04628409957885742	0.957906005859375	0.010103899955749512	-0.028392799377441408	0.8615390014648437	0.004644750118255615	-0.026575099945068358	0.8874920043945312	-0.003800129890441894	-0.025110700607299804	0.9154810180664062	-0.014089400291442872	-0.023209400177001953	0.95497998046875	0.015127499580383301	0.016861799240112305	0.88827197265625	0.006282780170440674	0.013196100234985351	0.9078579711914062	-0.0026541600227355947	0.008947389602661133	0.9268909912109375	-0.010317899703979493	2.472589956596e-06	0.9567730102539063	-0.041657798767089846	-0.009949769973754883	1.0434100341796875
21	0.7	-0.018077699661254883	-0.13168099975585937	0.9926179809570312	-0.008744990348815918	-0.10486799621582031	0.9971229858398437	-0.016359399795532227	-0.08159449768066407	1.0170700073242187	-0.01635099983215332	-0.043365299224853514	1.0273699951171875	0.00416487979888916	-0.10347299957275391	0.8904719848632813	-0.002549129962921142	-0.09496420288085937	0.912177001953125	-0.009336420059204101	-0.08549259948730469	0.9348280029296875	-0.022591699600219728	-0.06947550201416015	0.9690139770507813	0.008805890083312989	-0.06361489868164062	0.864708984375	0.003885849952697754	-0.05979980087280273	0.8909500122070313	-0.004554409980773926	-0.05509709930419922	0.919969970703125	-0.02070159912109375	-0.04608100128173828	0.9581920166015625	0.01025790023803711	-0.02810860061645508	0.8615910034179688	0.004793519973754883	-0.02635770034790039	0.8873790283203125	-0.0037172000408172597	-0.024903999328613282	0.9155449829101563	-0.014052599906921386	-0.023055599212646483	0.9549500122070312	0.015221500396728515	0.017116199493408202	0.8883829956054687	0.006348979949951172	0.0134128999710083	0.9079609985351562	-0.002604000091552734	0.009146470069885254	0.9269580078125	-0.010285499572753907	0.000185175001621246	0.9568070068359374	-0.04158789825439453	-0.009898530006408692	1.043510009765625
22	0.7333333333333333	-0.017787700653076173	-0.13159100341796875	0.9926339721679688	-0.008685589790344238	-0.10480000305175781	0.9970689697265624	-0.016301700592041016	-0.08157270050048829	1.0171699829101561	-0.016205499649047852	-0.04328570175170898	1.0274000244140624	0.004451089859008789	-0.10329399871826171	0.890541015625	-0.0022895898818969724	-0.09480699920654297	0.91222900390625	-0.009149620056152344	-0.0853676986694336	0.934906982421875	-0.022498600006103514	-0.06937629699707032	0.9691079711914062	0.00914682960510254	-0.06350120162963867	0.8647890014648437	0.0042041301727294925	-0.05967940139770508	0.890989013671875	-0.004422299861907959	-0.0549822006225586	0.9200079956054688	-0.020480499267578126	-0.045989200592041014	0.958052978515625	0.010515899658203124	-0.027953399658203124	0.8616810302734375	0.004992839813232422	-0.02618880081176758	0.8875889892578125	-0.003507090091705322	-0.024790700912475587	0.9155800170898437	-0.013810799598693848	-0.022859500885009765	0.9549840087890625	0.015333399772644044	0.017231599807739258	0.888531982421875	0.006513539791107178	0.013527400016784668	0.90802197265625	-0.0024412200450897206	0.009242190361022948	0.9270360107421876	-0.010178000450134277	0.000287039011716842	0.9569509887695312	-0.04147320175170898	-0.009804690361022949	1.04352001953125
23	0.7666666666666667	-0.01751420021057129	-0.13158200073242188	0.9926710205078125	-0.008337750434875488	-0.10467400360107422	0.9972410278320313	-0.016170099258422853	-0.08150599670410157	1.017260009765625	-0.016097400665283205	-0.043237598419189456	1.027469970703125	0.004652669906616211	-0.10333499908447266	0.89056201171875	-0.0021316699981689447	-0.09485060119628906	0.9122550048828125	-0.008875499725341797	-0.08545919799804688	0.9346300048828124	-0.022399200439453124	-0.0693761978149414	0.9692830200195313	0.009299599647521972	-0.06356779861450196	0.8647680053710938	0.004333640098571777	-0.05971609878540039	0.8909429931640624	-0.004230949878692627	-0.05486410140991211	0.9201170043945313	-0.0203174991607666	-0.04603549957275391	0.9580040283203125	0.010667599678039551	-0.027965700149536133	0.8616539916992187	0.005123149871826172	-0.02622039985656738	0.887427001953125	-0.0034152400493621823	-0.024790300369262695	0.9155969848632812	-0.013853599548339843	-0.02294529914855957	0.9550349731445312	0.015450699806213379	0.017180999755859374	0.8884310302734375	0.006547729969024658	0.01352429962158203	0.90802099609375	-0.0024236600399017327	0.009280320167541503	0.9270469970703125	-0.010100199699401855	0.00033555901050567606	0.9568770141601562	-0.041443801879882815	-0.009804030418395997	1.04347998046875
24	0.8	-0.01746929931640625	-0.131656005859375	0.992573974609375	-0.008382809638977052	-0.10474800109863282	0.9970120239257813	-0.016178600311279295	-0.08158149719238281	1.017	-0.01609630012512207	-0.04331880187988281	1.027280029296875	0.004782430171966553	-0.10335299682617187	0.8905390014648438	-0.00198002004623413	-0.09491709899902344	0.912135009765625	-0.008953439712524413	-0.08544339752197265	0.93485302734375	-0.022384700775146486	-0.06947129821777344	0.9690479736328125	0.009393239974975586	-0.06362049865722656	0.8647310180664063	0.004374390125274658	-0.059784000396728515	0.8908800048828125	-0.004299190044403076	-0.05506880187988281	0.9199400024414063	-0.02038680076599121	-0.046095001220703126	0.9579860229492188	0.010766799926757813	-0.028066099166870116	0.861593994140625	0.005156670093536377	-0.02629960060119629	0.8874359741210938	-0.0034019100666046144	-0.02486210060119629	0.9154760131835937	-0.013817999839782715	-0.022988000869750978	0.954926025390625	0.015487400054931641	0.01710300064086914	0.8883519897460938	0.006567890167236328	0.01345330047607422	0.9078839721679688	-0.0024248199462890622	0.009189009666442871	0.9269010009765625	-0.010113900184631347	0.00019933100044727302	0.9567899780273438	-0.04141809844970703	-0.00988957977294922	1.0433299560546876
